<svg version="1.2" xmlns="http://www.w3.org/2000/svg" viewBox="0 0 964 775" width="964" height="775"><style>.a{fill:#3f3d56}.b{fill:#ffb8b8}.c{fill:#cfcce0}.d{fill:#2f2e41}.e{fill:#575a89}.f{fill:#e02957}.g{fill:#1f2937}</style><path class="a" d="m0 719.5h963.5v2.3h-963.5z"/><path class="b" d="m618.4 349.7c0 0-13.9 35.5-35.5 27.8-21.6-7.7 21.6-41.7 21.6-41.7z"/><path class="c" d="m627.7 346.6l-12.4 15.4c-3.1-23.1-18.5-23.1-18.5-23.1l9.3-15.4z"/><path class="b" d="m811.3 675.4l1.6 46.3-18.5 10.8-7.7-4.6 1.5-52.5z"/><path class="b" d="m701.8 663l3.1 49.4-43.3 18.5 3.1-26.2c0 0 12.4-20.1 9.3-41.7z"/><path class="d" d="m768.1 291c0 0 24.7 64.9 29.4 105 4.6 40.1 12.3 146.6 12.3 146.6l15.4 137.4-43.2 6.2-18.5-138.9-41.7-137.4-9.2 137.4-7.7 125-40.2 1.5-3.1-129.6-16.9-165.2 9.2-78.7z"/><path class="d" d="m791.3 724.8c0 0 2.5-26 21.3-11.5l3.4-2.4 15.4 33.9c0 0 18.5 26.3-13.9 29.4-32.4 3-29.3-29.4-29.3-29.4l-3.1-13.9 1.6-9.1z"/><path class="d" d="m701.8 693.9q2.8 1.6 5.1 3.9 2.4 2.4 4 5.2 1.6 2.9 2.4 6 0.9 3.2 0.8 6.5c0 15.4-1.5 17-1.5 17l-23.2 6.2c0 0-15.4-1.6-24.7 7.7-9.2 9.2-55.5 15.4-55.5 3.1 0-12.4 38.5-32.5 38.5-32.5 0 0 11.5-19.3 19.7-17.3 8.1 1.9 11.2 5 11.2 6.5 0 1.6-4.6 12.4-4.6 12.4 0 0 26.2-6.2 27.8-24.7z"/><circle class="b" cx="698.7" cy="62.6" r="38.6"/><path class="b" d="m727.2 72.6l17 38.6-46.3 66.4c0 0-3.1-72.5-12.3-84.9-9.3-12.3 41.6-20.1 41.6-20.1z"/><path class="c" d="m705.6 152.9l7.7-20.1 6.2 1.6 7.7-6.2 10.8-33.9 15.5 10.8 20 202.2-125 3 17-140.4 15.4-40.1 11.2-14.8 7.3 22.5z"/><path class="e" d="m741.1 239.3l4.7-139.6c0 0 9.2 0.7 12.3 5.4 3.1 4.6 54 13.9 54 13.9l-9.2 143.5c0 0 38.5 114.2 24.7 120.4-13.9 6.2-38.6 4.6-38.6 4.6z"/><path class="e" d="m666.3 269.4l-18.6 129.7c0 0-10.8 4.6-20 0-9.3-4.6 20-132.7 20-132.7l7.8-46.4-9.3-67.9 36.4-24.6-16.3 94.1z"/><path class="e" d="m663.8 286.4l-40.8 71c-7.7-35.5-26.2-23.1-26.2-23.1l37.1-66.4 7.7-54 4.6-61.8 10.8-3z"/><path class="b" d="m791.3 337.4c0 0-13.9 35.5-35.5 27.7-21.6-7.7 21.6-41.6 21.6-41.6z"/><path class="c" d="m803.6 340.4l-13.9 17-18.5-32.4 7.7-13.9z"/><path class="e" d="m800.5 124.4l12.4-6.2c0 0 9.3 12.3 10.8 23.1 1.5 10.8 9.3 24.7 9.3 32.4 0 7.8 21.6 80.3 21.6 80.3l-49.4 100.3c0 0-10.8-37-34-40.1l38.6-54-21.6-38.6z"/><path class="d" d="m736.7 74.2c0 0-5.1-7.6-5.7-15.6-0.7-8-17.9-17.5-17.9-17.5l6 8.1-15.2-2.2 3.9 6.5-24.4-8-2 8-4-5.1c0 4.4-7.3 11-7.3 11v-7.3c0 2.9-9 21.6-9 21.6q-1.2-1-2.1-2.1-1-1.1-1.7-2.4-0.7-1.3-1.2-2.7-0.4-1.4-0.6-2.9-0.2-1.5-0.3-3-0.1-1.5 0-2.9 0-1.5 0.2-3 0.1-1.5 0.4-3l-11.7 1.3 11.4-7.1-3.3-7.2h7.8c5-10.7 13.1-20.1 20-28.1 13.3-15.3 27.8-9.5 27.8-9.5l-5.9 6.5c21.1-1.4 36.4 15.3 36.4 15.3l-7.3 3c19.2 10.9 5.7 48.3 5.7 48.3z"/><ellipse class="b" cx="730.3" cy="56.4" rx="4.3" ry="5.4"/><path class="f" d="m178.6 318.1h-133.2v-37.3h69.5z"/><path fill-rule="evenodd" class="g" d="m477.7 313v109.1h-432.7v-109.1zm-263.9 75.4h-140.6v15.4h140.6zm235.7-28.6h-376.3v15.4h376.3zm0-28.6h-376.3v15.4h376.3z"/><path class="f" d="m178.6 141.7h-133.2v-37.4h69.5z"/><path fill-rule="evenodd" class="g" d="m477.7 138.8v109h-432.7v-109zm-263.9 75.4h-140.6v15.3h140.6zm81.2-28.5h-221.8v15.4h221.8zm154.5-28.6h-376.3v15.4h376.3z"/><path class="f" d="m178.6 490.9h-133.2v-37.3h69.5z"/><path fill-rule="evenodd" class="g" d="m477.7 483.6v109.1h-432.7v-109.1zm-182.7 75.4h-221.8v15.3h221.8zm0-28.5h-221.8v15.4h221.8zm154.5-28.6h-376.3v15.4h376.3z"/><path class="g" d="m600.3 223.7h-61.5v-61.5h41.7v1.4h-40.2v58.6h58.5v-29.3h1.5z"/><path class="f" d="m569.2 207.6c-1.4-4.2-19.2-18.4-8.3-20.8l9 11.9 41.1-41.1 4.2 4.1z"/><path class="g" d="m600.3 397.9h-61.5v-61.5h41.7v1.5h-40.2v58.6h58.5v-29.3h1.5z"/><path class="f" d="m569.2 381.9c-1.4-4.2-19.2-18.5-8.3-20.9l9 12 41.1-41.2 4.2 4.1z"/><path class="g" d="m600.3 571.4h-61.5v-61.5h41.7v1.5h-40.2v58.6h58.5v-29.3h1.5z"/><path class="f" d="m569.2 555.4c-1.4-4.2-19.2-18.5-8.3-20.9l9 12 41.1-41.2 4.2 4.1z"/></svg>